# xmcd
#
# Track frame offsets:
#	150
#	59771
#	95357
#	141721
#	183118
#	215505
#	234920
#	259284
#	283517
#	307301
#
# Disc length: 4412 seconds
#
# Revision: 1
# Processed by: cddbd v1.5.1PL0 Copyright (c) Steve Scherf et al.
# Submitted via: audiograbber 1.83.01
#
DISCID=9e113a0a
DTITLE=Johnny Winter - 1985-03-09 - Parker's Place, Seattle, WA
DYEAR=1900
DGENRE=
TTITLE0=Hideaway
TTITLE1=Parchment Farm
TTITLE2=Red House
TTITLE3=Don'T Take Advantage Of Me
TTITLE4=Mad Dog
TTITLE5=Lights Out (15 Sec Glitch At 3.35
TTITLE6=Kiss Tomorrow Goodbye
TTITLE7=Johnny B. Goode
TTITLE8=It'S All Over Now
TTITLE9=Jumpin' Jack Flash
EXTD=
EXTT0=
EXTT1=
EXTT2=
EXTT3=
EXTT4=
EXTT5=
EXTT6=
EXTT7=
EXTT8=
EXTT9=
PLAYORDER=
